<svg viewBox="0 0 98 98" xmlns="http://www.w3.org/2000/svg"><style>.st0{fill:#C9C9C9;} .st1{fill:#DBDBDB;} .st2{fill:#F3F3F3;} .st3{fill:#929292;}</style><path class="st0" d="M49 97.5C22.3 97.5.5 75.7.5 49S22.3.5 49 .5 97.5 22.3 97.5 49 75.7 97.5 49 97.5z"/><path class="st1" d="M49 1.5C22.8 1.5 1.5 22.8 1.5 49S22.8 96.5 49 96.5 96.5 75.2 96.5 49 75.2 1.5 49 1.5z"/><path class="st2" d="M72.4 44.5c0 13-10.4 23.4-23.4 23.4S25.6 57.5 25.6 44.5 36.1 21.1 49 21.1s23.4 10.5 23.4 23.4z"/><path class="st3" d="M49 69.4c-13.7 0-24.9-11.2-24.9-24.9S35.3 19.6 49 19.6c13.8 0 25 11.2 25 24.9S62.8 69.4 49 69.4zm0-46.8c-12.1 0-21.9 9.8-21.9 21.9S37 66.4 49 66.4c12.1 0 21.9-9.8 21.9-21.9S61.1 22.6 49 22.6z"/><path class="st3" d="M62.5 42.6c0 1-.8 1.8-1.8 1.8s-1.7-.8-1.7-1.8.8-1.8 1.8-1.8 1.7.8 1.7 1.8M39.2 42.6c0 1-.8 1.8-1.8 1.8s-1.8-.8-1.8-1.8.8-1.8 1.8-1.8c.9 0 1.8.8 1.8 1.8"/><path class="st2" d="M56.3 51.4c0 4-3.2 7.2-7.2 7.2s-7.2-3.2-7.2-7.2"/><path class="st3" d="M49 60.1c-4.8 0-8.7-3.9-8.7-8.7 0-.8.7-1.5 1.5-1.5s1.5.7 1.5 1.5c0 3.2 2.6 5.7 5.7 5.7 3.2 0 5.7-2.6 5.7-5.7 0-.8.7-1.5 1.5-1.5s1.5.7 1.5 1.5c.1 4.8-3.8 8.7-8.7 8.7z"/><path class="st2" d="M57.3 67.9H40.8c-10.8 0-20.1 6.3-24.6 15.4 8.5 8.2 20.1 13.2 32.8 13.2s24.3-5 32.8-13.2c-4.4-9.1-13.7-15.4-24.5-15.4z"/><path class="st3" d="M57.3 66.4H40.8c-11.2 0-20.9 6.4-25.7 15.8.7.7 1.5 1.5 2.3 2.2 4.1-8.8 13-15 23.4-15h16.6c10.3 0 19.3 6.1 23.4 14.9.8-.7 1.5-1.4 2.3-2.2-4.9-9.3-14.6-15.7-25.8-15.7z"/></svg>